<?xml version="1.0" encoding="UTF-8" standalone="no"?><!DOCTYPE svg PUBLIC "-//W3C//DTD SVG 1.1//EN" "http://www.w3.org/Graphics/SVG/1.1/DTD/svg11.dtd"><svg width="100%" height="100%" viewBox="0 0 51 29" version="1.1" xmlns="http://www.w3.org/2000/svg" xmlns:xlink="http://www.w3.org/1999/xlink" xml:space="preserve" xmlns:serif="http://www.serif.com/" style="fill-rule:evenodd;clip-rule:evenodd;stroke-linejoin:round;stroke-miterlimit:2;"><g><text x="14.542px" y="5.113px" style="font-family:'Roboto-Bold', 'Roboto';font-weight:700;font-size:7.192px;fill:#002f89;">M</text><g><text x="21.24px" y="5.113px" style="font-family:'Roboto-Bold', 'Roboto';font-weight:700;font-size:7.192px;fill:#002f89;">A</text><text x="26.189px" y="5.113px" style="font-family:'Roboto-Bold', 'Roboto';font-weight:700;font-size:7.192px;fill:#002f89;">NY</text></g></g><g><g><text x="6.354px" y="11.934px" style="font-family:'Roboto-Bold', 'Roboto';font-weight:700;font-size:7.192px;fill:#002f89;">S</text><g><text x="11.417px" y="11.934px" style="font-family:'Roboto-Bold', 'Roboto';font-weight:700;font-size:7.192px;fill:#002f89;">T</text><text x="15.537px" y="11.934px" style="font-family:'Roboto-Bold', 'Roboto';font-weight:700;font-size:7.192px;fill:#002f89;">ALLINGS</text></g></g></g><path d="M51,19.827l-51,0l0,9.073l51,0l0,-9.073Zm-13.05,5.066c-0.976,0 -1.577,0.294 -1.577,0.794c0,0.5 0.601,0.794 1.577,0.794c0.981,0 1.582,-0.294 1.582,-0.794c0,-0.5 -0.601,-0.794 -1.582,-0.794Zm-31.815,-2.646l0,1.614l-0.385,0l0,-1.545l-0.616,0l0,3.967l0.616,0l0,-1.935l0.385,0l0,2.123l0.626,0l0,-4.224l-0.626,0Zm8.077,0l0,4.224l0.661,0l0,-4.224l-0.661,0Zm14.49,3.472l2.383,0l0,-1.119l-3.044,0l0,0.454l2.393,0l0,0.243l-2.388,0l0,1.147l3.175,0l0,-0.454l-2.519,0l0,-0.271Zm9.248,0.294c-0.601,0 -0.916,-0.101 -0.916,-0.326c0,-0.22 0.315,-0.321 0.916,-0.321c0.606,0 0.921,0.101 0.921,0.321c0,0.225 -0.315,0.326 -0.921,0.326Zm-18.711,-0.542l0,0.491l4.175,0l0,-0.491l-4.175,0Zm24.649,0l0,0.491l4.176,0l0,-0.491l-4.176,0Zm-31.97,-2.82l-0.655,0l0,2.784l0.41,0c0.701,0 1.467,-0.046 2.253,-0.198l-0.07,-0.504c-0.676,0.124 -1.332,0.17 -1.938,0.183l0,-2.265Zm-8.982,2.77l1.818,0l0,-2.739l-1.818,0l0,2.739Zm0.616,-2.262l0.591,0l0,1.789l-0.591,0l0,-1.789Zm35.95,-0.908l-0.666,0l0,2.564l0.666,0l0,-2.564Zm-16.233,1.986c-1.041,-0.16 -1.612,-0.816 -1.612,-1.435l0,-0.303l-0.706,0l0,0.303c0,0.605 -0.576,1.275 -1.612,1.435l0.28,0.51c0.801,-0.143 1.387,-0.555 1.683,-1.092c0.295,0.537 0.886,0.945 1.687,1.092l0.28,-0.51Zm24.65,0c-1.041,-0.16 -1.612,-0.816 -1.612,-1.435l0,-0.303l-0.706,0l0,0.303c0,0.605 -0.576,1.275 -1.613,1.435l0.281,0.51c0.801,-0.143 1.387,-0.555 1.682,-1.092c0.296,0.537 0.886,0.945 1.688,1.092l0.28,-0.51Zm-9.463,-0.197c-0.601,0.092 -1.137,0.115 -1.898,0.119l0,-0.371l1.467,0l0,-1.289l-2.123,0l0,0.482l1.472,0l0,0.358l-1.467,0l0,1.307l0.406,0c0.916,0 1.532,-0.019 2.218,-0.124l-0.075,-0.482Zm-7.371,-0.963l0,-0.826l-0.66,0l0,2.17l0.66,0l0,-0.849l0.606,0l0,-0.495l-0.606,0Zm-1.021,0.715c-0.546,0.074 -1.026,0.088 -1.783,0.088l0,-0.28l1.412,0l0,-0.45l-1.412,0l0,-0.261l1.507,0l0,-0.468l-2.162,0l0,1.931l0.385,0c0.936,0 1.492,-0.004 2.113,-0.092l-0.06,-0.468Z" style="fill:#002f89;"/><path d="M4.253,14.307l4.14,4.991l-8.28,0l4.14,-4.991Z" style="fill:#002f89;"/><path d="M46.634,14.307l4.139,4.991l-8.279,0l4.14,-4.991Z" style="fill:#002f89;"/><path d="M38.165,14.307l4.14,4.991l-8.28,0l4.14,-4.991Z" style="fill:#0f3b87;"/><path d="M29.734,14.307l4.14,4.991l-8.28,0l4.14,-4.991Z" style="fill:#1c3b98;"/><path d="M21.228,14.307l4.14,4.991l-8.28,0l4.14,-4.991Z" style="fill:#1c3598;"/><path d="M12.722,14.307l4.139,4.991l-8.279,0l4.14,-4.991Z" style="fill:#2055ab;"/></svg>